<?xml version="1.0" standalone="no"?>
<!DOCTYPE svg PUBLIC "-//W3C//DTD SVG 20010904//EN"
 "http://www.w3.org/TR/2001/REC-SVG-20010904/DTD/svg10.dtd">
<svg version="1.0" xmlns="http://www.w3.org/2000/svg"
 width="100.000000pt" height="100.000000pt" viewBox="0 0 100.000000 100.000000"
 preserveAspectRatio="xMidYMid meet">

<g transform="translate(0.000000,100.000000) scale(0.100000,-0.100000)"
fill="#000000" stroke="none">
<path d="M644 981 c-45 -21 -81 -61 -90 -100 -4 -14 -18 -50 -33 -79 l-26 -54
23 -18 c14 -12 22 -29 22 -50 0 -37 38 -80 72 -80 18 0 14 -5 -17 -19 -31 -14
-47 -16 -68 -8 -33 11 -97 -4 -117 -28 -11 -13 -15 -12 -37 5 -32 25 -81 34
-113 22 l-25 -10 -3 74 c-3 68 6 92 23 64 11 -17 81 -11 106 9 23 18 23 21 11
67 -16 61 -42 84 -94 84 -52 0 -101 -24 -131 -63 -39 -51 -85 -139 -107 -202
-34 -100 -21 -207 28 -226 14 -6 49 -32 77 -58 28 -26 68 -54 89 -61 44 -14
112 -8 156 15 29 15 30 15 36 -12 4 -16 20 -59 37 -98 17 -38 33 -88 36 -110
4 -26 11 -40 21 -40 18 0 25 49 13 83 -7 18 0 40 26 92 30 62 35 81 38 167 3
54 0 117 -5 141 -13 56 2 63 28 12 26 -50 59 -72 118 -77 65 -6 110 19 142 79
25 46 25 46 54 31 20 -10 31 -12 39 -4 16 16 -10 39 -62 55 -59 17 -63 39 -21
127 18 39 30 80 30 104 0 45 -28 112 -56 137 -55 48 -150 61 -220 29z m162
-37 c37 -18 74 -82 74 -128 0 -15 -13 -58 -30 -96 -36 -83 -41 -149 -10 -157
27 -7 18 -39 -21 -75 -41 -39 -97 -39 -138 0 -39 36 -48 68 -21 75 11 3 20 12
20 21 0 22 -36 56 -58 56 -28 0 -42 21 -42 62 0 25 -6 40 -17 47 -17 9 -17 12
-1 43 9 18 21 49 28 68 6 19 17 43 24 52 35 47 128 62 192 32z m-488 -137 c6
-7 12 -26 14 -42 3 -26 -1 -30 -23 -33 -20 -2 -28 2 -32 17 -3 14 -13 21 -30
21 -41 0 -52 -24 -53 -124 -1 -50 -4 -105 -8 -123 -10 -45 8 -50 50 -14 44 39
74 39 119 0 l35 -31 35 31 c39 34 79 40 111 17 17 -13 19 -27 19 -138 0 -108
-3 -129 -24 -177 l-24 -53 -19 36 c-11 21 -22 60 -25 87 -3 27 -9 52 -13 54
-5 3 -34 -9 -65 -25 -90 -48 -145 -39 -215 35 -19 21 -49 44 -67 51 -27 12
-33 20 -38 59 -4 25 -4 62 0 82 10 59 81 198 124 243 32 34 44 40 78 40 22 0
45 -6 51 -13z"/>
<path d="M206 431 c-17 -27 38 -71 87 -71 62 0 125 46 99 72 -7 7 -19 4 -38
-11 -34 -26 -74 -27 -107 -1 -28 23 -33 24 -41 11z"/>
</g>
</svg>
