<?xml version="1.0" standalone="no"?>
<!DOCTYPE svg PUBLIC "-//W3C//DTD SVG 20010904//EN"
 "http://www.w3.org/TR/2001/REC-SVG-20010904/DTD/svg10.dtd">
<svg version="1.0" xmlns="http://www.w3.org/2000/svg"
 width="100.000000pt" height="100.000000pt" viewBox="0 0 100.000000 100.000000"
 preserveAspectRatio="xMidYMid meet">

<g transform="translate(0.000000,100.000000) scale(0.100000,-0.100000)"
fill="#000000" stroke="none">
<path d="M330 935 c-25 -14 -51 -25 -58 -25 -26 0 -110 -50 -139 -84 -42 -47
-57 -97 -48 -160 8 -65 9 -61 -10 -126 -18 -65 -16 -115 5 -115 10 0 17 16 22
50 4 27 14 68 23 91 12 31 13 48 5 68 -37 99 25 199 145 235 64 20 146 63 142
75 -6 20 -41 16 -87 -9z"/>
<path d="M587 953 c-4 -3 -7 -10 -7 -13 0 -10 94 -55 145 -71 120 -36 182
-136 145 -235 -8 -20 -7 -37 5 -68 9 -23 19 -64 23 -91 5 -34 12 -50 22 -50
21 0 23 50 5 115 -19 65 -18 61 -10 126 9 63 -6 113 -48 160 -29 34 -113 84
-139 84 -7 0 -34 11 -60 25 -48 25 -69 30 -81 18z"/>
<path d="M471 582 c-41 -80 -152 -83 -208 -6 -11 15 -25 24 -30 21 -6 -4 -13
-33 -17 -66 -4 -32 -18 -81 -31 -107 -32 -62 -17 -85 24 -37 l27 32 12 -44 c7
-25 12 -87 12 -138 0 -112 14 -140 94 -183 22 -12 31 -13 40 -4 8 9 4 17 -19
34 -73 53 -75 57 -75 159 0 51 -6 116 -14 143 -14 51 -27 124 -22 124 2 0 20
-7 39 -15 66 -27 124 -18 175 28 l22 20 23 -20 c50 -46 108 -55 174 -28 19 8
37 15 40 15 6 0 -6 -66 -23 -124 -8 -27 -14 -92 -14 -143 0 -102 -2 -106 -75
-159 -23 -17 -27 -25 -19 -34 9 -9 18 -8 40 4 80 43 94 71 94 183 0 51 5 113
12 138 l12 44 27 -32 c41 -48 56 -25 24 37 -13 26 -27 75 -31 107 -4 33 -11
62 -17 66 -5 3 -19 -6 -30 -21 -56 -77 -167 -74 -208 6 -11 21 -24 38 -29 38
-5 0 -18 -17 -29 -38z"/>
</g>
</svg>
