<?xml version="1.0" standalone="no"?>
<!DOCTYPE svg PUBLIC "-//W3C//DTD SVG 20010904//EN"
 "http://www.w3.org/TR/2001/REC-SVG-20010904/DTD/svg10.dtd">
<svg version="1.0" xmlns="http://www.w3.org/2000/svg"
 width="64.000000pt" height="64.000000pt" viewBox="0 0 64.000000 64.000000"
 preserveAspectRatio="xMidYMid meet">

<g transform="translate(0.000000,64.000000) scale(0.100000,-0.100000)"
fill="#000000" stroke="none">
<path d="M40 596 c-17 -45 -23 -171 -11 -209 13 -37 65 -90 120 -120 l33 -17
-7 -73 c-4 -39 -10 -75 -14 -79 -3 -4 -24 -13 -46 -20 -29 -9 -40 -19 -40 -33
0 -19 7 -20 135 -20 128 0 135 1 135 20 0 14 -11 24 -40 33 -22 7 -43 16 -46
20 -4 4 -10 40 -14 79 l-7 73 33 17 c55 30 107 83 120 120 12 38 6 164 -11
209 l-10 24 -160 0 -160 0 -10 -24z m324 -11 c3 -9 9 -51 12 -94 9 -112 -7
-140 -129 -215 l-29 -18 7 -81 c4 -45 12 -88 17 -94 6 -7 25 -15 44 -19 73
-14 40 -24 -76 -24 -116 0 -149 10 -76 24 19 4 38 12 44 19 5 6 13 49 17 94
l7 81 -29 18 c-76 47 -93 61 -112 95 -13 22 -21 55 -21 83 l0 46 115 0 c70 0
115 4 115 10 0 6 -43 10 -110 10 -110 0 -110 0 -110 24 0 56 0 56 160 56 123
0 149 -3 154 -15z"/>
<path d="M290 510 c0 -5 14 -10 30 -10 17 0 30 5 30 10 0 6 -13 10 -30 10 -16
0 -30 -4 -30 -10z"/>
<path d="M83 453 c-18 -6 -16 -23 1 -23 17 0 30 16 19 23 -5 2 -14 2 -20 0z"/>
<path d="M95 399 c-12 -19 5 -23 22 -6 16 16 16 17 1 17 -9 0 -20 -5 -23 -11z"/>
<path d="M137 373 c-4 -3 -7 -13 -7 -21 0 -12 3 -12 15 -2 8 7 15 16 15 21 0
11 -14 12 -23 2z"/>
<path d="M176 344 c-4 -9 -4 -19 -2 -21 8 -8 26 8 26 23 0 19 -16 18 -24 -2z"/>
<path d="M475 610 c-4 -6 -13 -54 -21 -107 l-15 -96 31 -32 31 -32 -10 -143
c-10 -151 -6 -174 29 -185 27 -8 58 2 69 24 6 10 6 72 0 161 l-10 144 31 27
c16 15 30 32 30 36 -1 26 -29 194 -35 203 -8 13 -122 13 -130 0z m30 -95 c-5
-55 -4 -85 3 -85 5 0 13 38 17 85 4 47 10 85 15 85 5 0 11 -38 15 -85 4 -47
12 -85 17 -85 7 0 8 30 3 85 -4 57 -3 85 4 85 10 0 14 -15 30 -125 10 -69 8
-78 -25 -100 -13 -8 -24 -24 -24 -35 0 -13 -7 -20 -20 -20 -13 0 -20 7 -20 20
0 11 -11 27 -24 35 -33 22 -36 35 -25 107 15 99 20 118 31 118 6 0 7 -30 3
-85z m55 -225 c0 -5 -9 -10 -20 -10 -11 0 -20 5 -20 10 0 6 9 10 20 10 11 0
20 -4 20 -10z m12 -127 c5 -105 -2 -133 -32 -133 -30 0 -37 28 -32 133 l4 97
28 0 28 0 4 -97z"/>
</g>
</svg>
